<svg width="32" height="32" xmlns="http://www.w3.org/2000/svg" clip-rule="evenodd" stroke-miterlimit="2" stroke-linejoin="round" fill-rule="evenodd">

 <g>
  <title>Layer 1</title>
  <path fill="#ffffff" id="svg_1" d="m15.5,5.711l-3.647,2.106l-0.866,0.5l-3.647,2.106l-0.5,0.866l0,4.211l0,1l0,4.211l0.5,0.866l3.647,2.106l0.866,0.5l3.647,2.106l1,0l3.647,-2.106l0.866,-0.5l3.647,-2.106l0.5,-0.866l0,-4.211l0,-1l0,-4.211l-0.5,-0.866l-3.647,-2.106l-0.866,-0.5l-3.647,-2.106l-1,0zm0.5,0.866l8.16,4.712c0,0 0,9.422 0,9.422c0,0 -8.16,4.712 -8.16,4.712c0,0 -8.16,-4.712 -8.16,-4.712c0,0 0,-9.422 0,-9.422l8.16,-4.712zm0.25,0.99c-0.155,-0.089 -0.345,-0.089 -0.5,0l-6.928,4c-0.155,0.089 -0.25,0.254 -0.25,0.433l0,8c0,0.179 0.095,0.344 0.25,0.433l6.928,4c0.155,0.089 0.345,0.089 0.5,0l6.928,-4c0.155,-0.089 0.25,-0.254 0.25,-0.433l0,-8c0,-0.179 -0.095,-0.344 -0.25,-0.433l-6.928,-4zm-4.75,10.433l0,-1.882c0,0 1.053,2.106 1.053,2.106c0.103,0.207 0.336,0.316 0.562,0.263c0.226,-0.054 0.385,-0.255 0.385,-0.487l0,-4c0,-0.276 -0.224,-0.5 -0.5,-0.5c-0.276,0 -0.5,0.224 -0.5,0.5l0,1.882c0,0 -1.053,-2.106 -1.053,-2.106c-0.103,-0.207 -0.336,-0.316 -0.562,-0.263c-0.226,0.054 -0.385,0.255 -0.385,0.487l0,4c0,0.276 0.224,0.5 0.5,0.5c0.276,0 0.5,-0.224 0.5,-0.5zm8,-3.5l0,3.5c0,0.276 0.224,0.5 0.5,0.5c0.276,0 0.5,-0.224 0.5,-0.5l0,-3.5l0.5,0c0.276,0 0.5,-0.224 0.5,-0.5c0,-0.276 -0.224,-0.5 -0.5,-0.5l-2,0c-0.276,0 -0.5,0.224 -0.5,0.5c0,0.276 0.224,0.5 0.5,0.5l0.5,0zm-4,2l0.5,0c0.276,0 0.5,-0.224 0.5,-0.5c0,-0.276 -0.224,-0.5 -0.5,-0.5l-0.5,0l0,-1c0,0 1.5,0 1.5,0c0.276,0 0.5,-0.224 0.5,-0.5c0,-0.276 -0.224,-0.5 -0.5,-0.5l-2,0c-0.276,0 -0.5,0.224 -0.5,0.5l0,4c0,0.276 0.224,0.5 0.5,0.5c0.276,0 0.5,-0.224 0.5,-0.5l0,-1.5z"/>
 </g>
</svg>